<svg xmlns="http://www.w3.org/2000/svg" viewBox="0 0 1024 1024" role="img" aria-label="Технопоиск">
  <path d="M210 332h575a28 28 0 0 1 28 28v270H210z" fill="#F2B625"/>
  <path d="M210 268h185a28 28 0 0 1 24 14l34 58H210z" fill="#F2B625"/>
  <path d="M250 356h522v228H250z" fill="none" stroke="#FFFFFF" stroke-width="28" stroke-linejoin="round"/>
  <path d="M360 145h242l53 53v367H360z" fill="#F7FAFC" stroke="#5F6B78" stroke-width="10"/>
  <path d="M602 145v53h53" fill="none" stroke="#5F6B78" stroke-width="10"/>
  <path d="M410 245h170M410 300h194M410 355h194M410 410h194M410 465h194" stroke="#81909E" stroke-width="14"/>
  <circle cx="436" cy="236" r="35" fill="#D98B00"/><circle cx="436" cy="236" r="14" fill="#FFFFFF"/>
  <path d="M390 470l64-66 72 31M390 470l-34 70M450 548h190M505 372h55v60h-55z" fill="none" stroke="#25313D" stroke-width="18" stroke-linecap="round" stroke-linejoin="round"/>
  <circle cx="696" cy="562" r="137" fill="#FFFFFF" stroke="#157FC4" stroke-width="30"/>
  <path d="M790 660l112 112" stroke="#157FC4" stroke-width="54" stroke-linecap="round"/>
  <path d="M636 532a62 62 0 0 1 66-55" fill="none" stroke="#5F6B78" stroke-width="18" stroke-linecap="round"/>
</svg>
